<svg xmlns="http://www.w3.org/2000/svg" viewBox="0 0 704 756" role="img" aria-hidden="true">
  <style>
    .ink { fill: #072d4c; }
    .grain { fill: #f9daa1; }
    .highlight { fill: #fff; }
    @media (prefers-color-scheme: dark) {
      .ink, .grain { fill: #fde2ba; }
    }
  </style>
  <g transform="translate(0.000000,756.000000) scale(0.100000,-0.100000)">
    <g class="ink">
      <path d="M1450 3753 c-585 -41 -1138 -194 -1326 -366 -131 -119 -141 -220 -57
-552 98 -388 320 -830 579 -1155 94 -118 349 -371 470 -466 229 -182 513 -357
769 -473 77 -35 169 -76 204 -93 l65 -29 -63 -41 c-35 -22 -76 -59 -93 -82
-26 -35 -29 -48 -25 -89 3 -39 11 -56 42 -87 172 -176 865 -320 1535 -320 529
0 1172 116 1434 258 182 99 180 228 -6 344 -16 10 -28 22 -28 27 0 4 48 30
108 56 495 220 830 440 1137 749 271 272 444 523 602 867 129 284 233 663 233
851 0 105 -28 167 -112 243 -211 190 -840 347 -1453 362 -153 4 -229 2 -249
-6 -17 -7 -26 -15 -20 -21 5 -5 136 -34 291 -64 337 -66 516 -111 717 -177
225 -74 356 -150 395 -232 17 -36 19 -48 10 -81 -46 -167 -565 -389 -1169
-500 -337 -62 -808 -110 -1343 -137 -450 -23 -1268 -1 -1732 46 -996 102
-1744 320 -1902 554 -61 91 1 178 192 271 194 95 482 170 995 260 263 47 320
59 320 70 0 4 -10 10 -22 14 -23 6 -412 5 -498 -1z m4679 -1540 c40 -30 56
-93 42 -159 -25 -112 -146 -325 -281 -494 -79 -99 -271 -288 -384 -378 -390
-312 -925 -545 -1423 -622 -128 -20 -336 -25 -398 -11 l-30 8 45 12 c258 72
514 157 675 226 417 178 697 358 951 610 175 175 267 293 399 515 113 190 125
208 175 253 27 24 63 49 82 55 46 15 115 8 147 -15z"/>
    </g>
    <g class="grain">
      <path d="M3634 7541 c-72 -44 -104 -116 -104 -230 0 -187 125 -446 285 -593
158 -144 327 -189 423 -111 59 48 75 85 80 183 5 99 -11 172 -62 290 -76 177
-245 371 -383 441 -85 43 -189 52 -239 20z"/>
      <path d="M3410 5928 c-171 -60 -316 -196 -410 -383 -89 -176 -101 -333 -35
-438 109 -171 342 -150 555 49 187 177 284 420 240 602 -36 154 -188 227 -350
170z"/>
      <path d="M3860 4645 c-66 -13 -106 -34 -141 -72 -71 -76 -86 -174 -44 -298 39
-118 79 -180 174 -276 73 -73 101 -94 182 -133 194 -94 354 -98 457 -11 129
109 95 329 -83 538 -157 185 -379 287 -545 252z"/>
      <path d="M3256 3824 c-181 -44 -370 -194 -420 -334 -26 -73 -19 -156 18 -205
67 -88 157 -125 302 -125 122 0 180 13 292 66 214 100 337 299 273 440 -21 47
-77 106 -121 129 -82 43 -235 55 -344 29z"/>
      <path d="M1673 3763 c43 -2 110 -2 150 0 40 1 5 3 -78 3 -82 0 -115 -2 -72 -3z"/>
      <path d="M5333 3763 c32 -2 81 -2 110 0 29 2 3 3 -58 3 -60 0 -84 -1 -52 -3z"/>
      <path d="M4014 3451 c-84 -20 -213 -109 -253 -174 -28 -45 -27 -88 2 -113 12
-11 49 -37 82 -58 33 -21 94 -73 135 -117 74 -78 76 -79 124 -79 48 0 50 1
140 91 50 51 116 109 147 130 91 62 111 116 67 187 -26 42 -123 107 -192 127
-52 16 -197 19 -252 6z"/>
      <path d="M2326 3289 c-32 -5 -96 -26 -141 -48 -277 -134 -316 -379 -78 -489
107 -49 183 -65 318 -66 173 -1 269 31 368 122 81 76 106 158 72 238 -20 49
-121 144 -192 181 -106 57 -233 80 -347 62z"/>
      <path d="M4692 3130 c-205 -54 -402 -231 -402 -362 0 -50 37 -92 95 -108 58
-16 302 -8 430 14 264 47 364 119 353 253 -3 38 -13 66 -34 96 -31 44 -115
101 -174 117 -56 16 -188 11 -268 -10z"/>
      <path d="M3394 3069 c-131 -16 -228 -58 -309 -137 -57 -57 -85 -111 -85 -172
0 -48 17 -76 62 -104 60 -39 127 -48 363 -53 340 -7 452 18 491 113 20 48 17
83 -11 140 -75 151 -286 238 -511 213z"/>
      <path d="M3173 2533 c31 -2 83 -2 115 0 31 2 5 3 -58 3 -63 0 -89 -1 -57 -3z"/>
      <path d="M3843 2533 c31 -2 83 -2 115 0 31 2 5 3 -58 3 -63 0 -89 -1 -57 -3z"/>
    </g>
    <g class="highlight">
      <path d="M5952 2209 c-55 -27 -100 -81 -169 -199 -138 -237 -211 -341 -337
-485 -373 -426 -907 -727 -1661 -937 l-120 -33 70 -8 c179 -20 494 29 780 120
614 197 1131 553 1450 998 120 167 205 354 205 448 0 42 -5 54 -34 83 -30 30
-40 34 -87 34 -35 0 -69 -8 -97 -21z"/>
    </g>
  </g>
</svg>
