<svg xmlns="http://www.w3.org/2000/svg" viewBox="0 0 818 717" role="img" aria-hidden="true">
  <style>
    .ink { fill: #0a2a4a; }
    .grain { fill: #fbb938; }
    @media (prefers-color-scheme: dark) {
      .ink, .grain { fill: #fde2ba; }
    }
  </style>
  <g transform="translate(0.000000,717.000000) scale(0.100000,-0.100000)">
    <g class="ink">
      <path d="M480 3991 c-14 -4 -31 -19 -38 -35 -12 -24 -12 -38 2 -94 29 -116 128 -457 135 -464 4 -4 63 -15 131 -23 282 -36 641 -123 880 -214 284 -107 582 -254 994 -490 127 -72 232 -129 234 -126 17 17 -145 248 -289 412 -456 519 -1272 959 -1914 1033 -99 11 -100 11 -135 1z M7508 3985 c-707 -115 -1499 -575 -1944 -1130 -113 -141 -215 -297 -202 -311 2 -2 87 44 188 102 733 420 1085 568 1610 679 92 19 394 65 430 65 12 0 25 40 91 275 63 226 72 286 48 311 -21 21 -123 25 -221 9z M298 3140 c-62 -33 -98 -103 -98 -190 0 -115 22 -190 248 -850 65 -188 88 -255 196 -554 67 -184 92 -200 356 -227 861 -88 1748 -341 2258 -643 142 -84 184 -125 206 -205 22 -79 65 -127 148 -169 267 -133 702 -131 961 5 79 42 120 87 137 152 27 98 77 145 277 255 521 287 1425 534 2233 609 162 15 210 33 254 90 41 54 448 1219 486 1392 40 183 15 286 -80 335 -73 37 -247 23 -550 -45 -418 -94 -744 -222 -1375 -538 -228 -114 -678 -327 -800 -379 -367 -157 -610 -293 -812 -454 -140 -112 -137 -104 -173 -454 -45 -439 -62 -560 -80 -560 -18 0 -46 202 -95 688 -9 84 -20 164 -25 177 -39 103 -359 323 -709 487 -58 28 -185 86 -281 130 -96 44 -403 192 -681 329 -579 284 -566 278 -798 370 -494 196 -1074 316 -1203 249z"/>
    </g>
    <g class="grain">
      <path d="M4276 6960 c-43 -13 -93 -67 -111 -118 -19 -58 -19 -167 1 -246 23 -92 115 -271 183 -356 146 -182 345 -290 464 -251 91 30 130 97 131 221 1 174 -103 394 -268 568 -78 82 -184 152 -265 176 -60 18 -91 19 -135 6z M4081 5485 c-204 -57 -417 -269 -513 -508 -30 -76 -32 -91 -33 -197 0 -127 13 -167 72 -221 52 -49 89 -61 173 -57 66 3 88 9 163 46 267 132 505 525 458 754 -15 71 -59 138 -109 166 -52 29 -141 36 -211 17z M4263 4236 c-61 -29 -97 -77 -114 -151 -34 -152 97 -415 271 -546 66 -49 186 -111 255 -130 70 -19 161 -17 217 4 153 59 170 258 41 471 -168 277 -480 440 -670 352z M3780 3573 c-277 -47 -511 -235 -510 -412 1 -78 65 -162 154 -202 144 -63 380 -45 564 44 82 39 198 150 230 219 57 123 1 244 -142 308 -92 42 -205 58 -296 43z M4635 3126 c-168 -39 -293 -104 -396 -206 -117 -116 -155 -221 -110 -307 23 -47 55 -72 138 -110 52 -24 73 -27 198 -31 161 -5 251 11 392 71 381 161 459 449 153 568 -71 28 -283 36 -375 15z M3037 2930 c-43 -24 -77 -73 -77 -112 0 -46 37 -130 84 -189 105 -133 360 -294 540 -339 106 -27 245 -27 303 -1 115 53 84 197 -77 361 -88 90 -174 152 -285 208 -128 64 -204 84 -335 88 -102 4 -119 2 -153 -16z"/>
    </g>
  </g>
</svg>
